<svg width="1342" height="368" viewBox="0 0 1342 368" fill="none" xmlns="http://www.w3.org/2000/svg">
<path d="M564.5 12.5C614.701 12.5 655.5 53.4091 655.5 104C655.5 154.591 614.701 195.5 564.5 195.5C514.299 195.5 473.5 154.591 473.5 104C473.5 53.4091 514.299 12.5 564.5 12.5Z" stroke="white" stroke-opacity="0.05" stroke-width="25"/>
<circle cx="76" cy="292" r="64" stroke="white" stroke-opacity="0.05" stroke-width="24"/>
<path d="M88 106C101.35 106 112 116.616 112 129.5C112 142.384 101.35 153 88 153C74.6497 153 64 142.384 64 129.5C64 116.616 74.6497 106 88 106Z" stroke="#54B435" stroke-opacity="0.5" stroke-width="12"/>
<circle cx="846.5" cy="110.5" r="15.5" stroke="#54B435" stroke-opacity="0.5" stroke-width="12"/>
<path d="M1300.5 134.5C1355.78 134.5 1400.5 179.1 1400.5 234C1400.5 288.9 1355.78 333.5 1300.5 333.5C1245.22 333.5 1200.5 288.9 1200.5 234C1200.5 179.1 1245.22 134.5 1300.5 134.5Z" stroke="white" stroke-opacity="0.05" stroke-width="25"/>
</svg>
